custom-analysis
version=1
nRows=4
nColumns=98
inDegrees=no

This file contains tibia displacement and acting force.

Units are S.I. units (seconds, meters, Newtons, ...)
Angles are in degrees.

endheader
time	APT	SIT	knee_angle	aACL_R_force	pACL_R_force	aPCL_R_force	pPCL_R_force	aMCL_R_force	mMCL_R_force	pMCL_R_force	aLCL_R_force	mLCL_R_force	pLCL_R_force	aPCL_L_force	pPCL_L_force	aMCL_L_force	aLCL_L_force	aACL_R_length	pACL_R_length	aPCL_R_length	pPCL_R_length	aMCL_R_length	mMCL_R_length	pMCL_R_length	aLCL_R_length	mLCL_R_length	pLCL_R_length	aPCL_L_length	pPCL_L_length	aMCL_L_length	aLCL_L_length	aACL_R_strain	pACL_R_strain	aPCL_R_strain	pPCL_R_strain	aMCL_R_strain	mMCL_R_strain	pMCL_R_strain	aLCL_R_strain	mLCL_R_strain	pLCL_R_strain	aPCL_L_strain	pPCL_L_strain	aMCL_L_strain	aLCL_L_strain	femur_lat_meniscii_r.femur_lat_r.force.X	femur_lat_meniscii_r.femur_lat_r.force.Y	femur_lat_meniscii_r.femur_lat_r.force.Z	femur_lat_meniscii_r.femur_lat_r.torque.X	femur_lat_meniscii_r.femur_lat_r.torque.Y	femur_lat_meniscii_r.femur_lat_r.torque.Z	femur_lat_meniscii_r.meniscus_lat_r.force.X	femur_lat_meniscii_r.meniscus_lat_r.force.Y	femur_lat_meniscii_r.meniscus_lat_r.force.Z	femur_lat_meniscii_r.meniscus_lat_r.torque.X	femur_lat_meniscii_r.meniscus_lat_r.torque.Y	femur_lat_meniscii_r.meniscus_lat_r.torque.Z	femur_med_meniscii_r.femur_med_r.force.X	femur_med_meniscii_r.femur_med_r.force.Y	femur_med_meniscii_r.femur_med_r.force.Z	femur_med_meniscii_r.femur_med_r.torque.X	femur_med_meniscii_r.femur_med_r.torque.Y	femur_med_meniscii_r.femur_med_r.torque.Z	femur_med_meniscii_r.meniscus_med_r.force.X	femur_med_meniscii_r.meniscus_med_r.force.Y	femur_med_meniscii_r.meniscus_med_r.force.Z	femur_med_meniscii_r.meniscus_med_r.torque.X	femur_med_meniscii_r.meniscus_med_r.torque.Y	femur_med_meniscii_r.meniscus_med_r.torque.Z	femur_med_tibia_r.tibia_upper_r.force.X	femur_med_tibia_r.tibia_upper_r.force.Y	femur_med_tibia_r.tibia_upper_r.force.Z	femur_med_tibia_r.tibia_upper_r.torque.X	femur_med_tibia_r.tibia_upper_r.torque.Y	femur_med_tibia_r.tibia_upper_r.torque.Z	femur_med_tibia_r.femur_med_r.force.X	femur_med_tibia_r.femur_med_r.force.Y	femur_med_tibia_r.femur_med_r.force.Z	femur_med_tibia_r.femur_med_r.torque.X	femur_med_tibia_r.femur_med_r.torque.Y	femur_med_tibia_r.femur_med_r.torque.Z	femur_lat_tibia_r.tibia_upper_r.force.X	femur_lat_tibia_r.tibia_upper_r.force.Y	femur_lat_tibia_r.tibia_upper_r.force.Z	femur_lat_tibia_r.tibia_upper_r.torque.X	femur_lat_tibia_r.tibia_upper_r.torque.Y	femur_lat_tibia_r.tibia_upper_r.torque.Z	femur_lat_tibia_r.femur_lat_r.force.X	femur_lat_tibia_r.femur_lat_r.force.Y	femur_lat_tibia_r.femur_lat_r.force.Z	femur_lat_tibia_r.femur_lat_r.torque.X	femur_lat_tibia_r.femur_lat_r.torque.Y	femur_lat_tibia_r.femur_lat_r.torque.Z	femur_lat_meniscii_force_r	femur_med_meniscii_force_r	femur_lat_tibia_force_r	femur_med_tibia_force_r
      0.11623046	      0.01381102	      0.01641428	     55.27508614	      0.00000000	      0.00000000	    543.76170444	    292.43584705	      0.00000000	      0.00000000	      0.00000000	      0.00000000	      0.00000000	      0.00000000	      0.00000000	      0.00000000	      0.00000001	      0.00000000	      0.03088292	      0.02353537	      0.03468444	      0.03173205	      0.05992674	      0.05923488	      0.05616797	      0.05355092	      0.04887443	      0.04421916	      0.01525851	      0.01651186	      0.06550154	      0.04489616	     -0.00395352	     -0.06079031	      0.11542373	      0.06170572	     -0.00167017	     -0.00934249	     -0.04359130	     -0.04334405	     -0.13217954	     -0.15519916	      0.00000079	     -0.32847694	      0.00000060	     -0.00000086	   -123.96309590	     28.19504911	    -11.38701657	     -0.53458800	      1.89983642	     10.00561101	    123.96309590	    -28.19504911	     11.38701657	      0.36636265	      2.79088258	      3.44029791	   -184.85724669	    124.80907958	    -12.84281250	      2.89728015	      9.25696560	     48.89442754	    184.85724669	   -124.80907958	     12.84281250	     -2.87232025	     -3.86257350	      3.17011015	    891.24425363	   -481.16401319	    106.37124595	    -11.98765134	    -19.02784778	     13.92944401	   -891.24425363	    481.16401319	   -106.37124595	     10.91888461	     62.23022739	    190.44874453	      0.00000000	      0.00000000	      0.00000000	      0.00000000	      0.00000000	      0.00000000	      0.00000000	      0.00000000	      0.00000000	      0.00000000	      0.00000000	      0.00000000	    127.63805893	    223.41541091	      0.00000000	   1018.40560151
      0.11720555	      0.01384699	      0.01662524	     55.89212118	      0.00000000	      0.00000000	    560.05039620	    302.87678850	      0.00000000	      0.00000000	      0.00000000	      0.00000000	      0.00000000	      0.00000000	      0.00000000	      0.00000000	      0.00000001	      0.00000000	      0.03086125	      0.02352725	      0.03477477	      0.03179036	      0.05998141	      0.05923849	      0.05613351	      0.05354375	      0.04884361	      0.04417999	      0.01525851	      0.01651186	      0.06550154	      0.04489616	     -0.00465251	     -0.06111450	      0.11832892	      0.06365688	     -0.00075944	     -0.00928214	     -0.04417801	     -0.04347213	     -0.13272683	     -0.15594752	      0.00000079	     -0.32847694	      0.00000060	     -0.00000086	   -123.93467849	     30.16256485	    -10.81588060	     -0.58757421	      1.66680993	     10.80158036	    123.93467849	    -30.16256485	     10.81588060	      0.43413738	      2.80650203	      3.43144534	   -187.43715340	    121.30328972	    -13.26177524	      2.83849910	      9.50064764	     47.40823004	    187.43715340	   -121.30328972	     13.26177524	     -2.83061479	     -3.93327302	      3.40420137	    911.90067754	   -489.73459244	    106.04006248	    -12.15249319	    -19.34707234	     14.73753781	   -911.90067754	    489.73459244	   -106.04006248	     11.09921683	     62.49912733	    193.61331534	      0.00000000	      0.00000000	      0.00000000	      0.00000000	      0.00000000	      0.00000000	      0.00000000	      0.00000000	      0.00000000	      0.00000000	      0.00000000	      0.00000000	    128.01003134	    223.65833151	      0.00000000	   1040.50339336
      0.11800704	      0.01387928	      0.01679934	     56.40133888	      0.00000000	      0.00000000	    569.79009315	    302.22430187	     42.55263465	      0.00000000	      0.00000000	      0.00000000	      0.00000000	      0.00000000	      0.00000000	      0.00000000	      0.00000001	      0.00000000	      0.03084668	      0.02352363	      0.03484690	      0.03183652	      0.06002723	      0.05924245	      0.05610661	      0.05353624	      0.04881697	      0.04414672	      0.01525851	      0.01651186	      0.06550154	      0.04489616	     -0.00512244	     -0.06125912	      0.12064834	      0.06520125	      0.00000383	     -0.00921593	     -0.04463613	     -0.04360630	     -0.13319995	     -0.15658299	      0.00000079	     -0.32847694	      0.00000060	     -0.00000086	   -117.35127976	     34.66977199	    -11.33383551	     -0.67885429	      2.03078505	     12.71710675	    117.35127976	    -34.66977199	     11.33383551	      0.52399662	      2.63076009	      3.14578913	   -178.07407293	    132.06472045	    -17.05554149	      3.09265130	     10.82316715	     51.85639227	    178.07407293	   -132.06472045	     17.05554149	     -3.13878930	     -3.80485339	      2.96963751	    878.22104546	   -522.33964629	    114.77371730	    -13.03341936	    -18.91578906	     13.18737772	   -878.22104546	    522.33964629	   -114.77371730	     11.86584879	     65.39603682	    207.28000642	      0.00000000	      0.00000000	      0.00000000	      0.00000000	      0.00000000	      0.00000000	      0.00000000	      0.00000000	      0.00000000	      0.00000000	      0.00000000	      0.00000000	    122.88926632	    222.35637462	      0.00000000	   1028.24312152
      0.11872485	      0.01391372	      0.01695676	     56.85976203	      0.00000000	      0.00000000	    579.01382873	    304.57898223	     41.50067813	      0.00000000	      0.00000000	      0.00000000	      0.00000000	      0.00000000	      0.00000000	      0.00000000	      0.00000001	      0.00000000	      0.03083799	      0.02352399	      0.03490747	      0.03187411	      0.06006846	      0.05924606	      0.05608280	      0.05352675	      0.04879050	      0.04411424	      0.01525851	      0.01651186	      0.06550154	      0.04489616	     -0.00540273	     -0.06124476	      0.12259640	      0.06645900	      0.00069063	     -0.00915546	     -0.04504160	     -0.04377591	     -0.13366986	     -0.15720359	      0.00000079	     -0.32847694	      0.00000060	     -0.00000086	   -115.92295889	     35.05173300	    -11.63546535	     -0.67605475	      2.18201914	     12.87779353	    115.92295889	    -35.05173300	     11.63546535	      0.51471176	      2.59600533	      3.12340539	   -181.69956921	    138.15145059	    -19.32469659	      3.23154848	     11.81404458	     54.26004871	    181.69956921	   -138.15145059	     19.32469659	     -3.31134525	     -3.90398449	      3.03892670	    880.75638931	   -537.53252158	    117.73199681	    -13.40871337	    -18.99778551	     13.18391446	   -880.75638931	    537.53252158	   -117.73199681	     12.20664990	     66.65580033	    213.40238903	      0.00000000	      0.00000000	      0.00000000	      0.00000000	      0.00000000	      0.00000000	      0.00000000	      0.00000000	      0.00000000	      0.00000000	      0.00000000	      0.00000000	    121.66404743	    229.07204249	      0.00000000	   1038.52484426
